<svg version="1.1" xmlns="http://www.w3.org/2000/svg" xmlns:xlink="http://www.w3.org/1999/xlink" x="0px" y="0px"
	 viewBox="0 0 50 50" style="enable-background:new 0 0 50 50;" xml:space="preserve">
<g id="Layer_1">
	<path d="M15,49h6h2h10h2h14V5H35V1H21v12h-6V1H1v48h12H15z M47,7v40H35V7H47z M23,3h10v2v42H23V13V3z M21,15v32h-6V15H21z M3,47V3
		h10v10v34H3z"/>
	<rect x="5" y="43" width="6" height="2"/>
	<rect x="5" y="38" width="6" height="2"/>
	<rect x="5" y="33" width="6" height="2"/>
	<rect x="37" y="43" width="8" height="2"/>
	<rect x="37" y="38" width="8" height="2"/>
	<rect x="37" y="33" width="8" height="2"/>
	<rect x="25" y="31" width="6" height="2"/>
	<rect x="25" y="35" width="6" height="2"/>
	<rect x="25" y="6" width="6" height="2"/>
	<rect x="25" y="10" width="6" height="2"/>
	<rect x="25" y="39" width="6" height="2"/>
	<rect x="25" y="43" width="6" height="2"/>
	<rect x="7" y="7" width="2" height="2"/>
	<rect x="40" y="11" width="2" height="2"/>
</g>
<g>
</g>
</svg>
